<?xml version="1.0" standalone="no"?>
<!DOCTYPE svg PUBLIC "-//W3C//DTD SVG 20010904//EN"
 "http://www.w3.org/TR/2001/REC-SVG-20010904/DTD/svg10.dtd">
<svg version="1.0" xmlns="http://www.w3.org/2000/svg"
 width="740.000000pt" height="740.000000pt" viewBox="0 0 740.000000 740.000000"
 preserveAspectRatio="xMidYMid meet">
<metadata>
Created by potrace 1.16, written by Peter Selinger 2001-2019
</metadata>
<g transform="translate(0.000000,740.000000) scale(0.100000,-0.100000)"
fill="#000000" stroke="none">
<path d="M3570 5195 c0 -635 -2 -750 -15 -774 -22 -43 -63 -53 -100 -25 -19
14 -20 30 -25 517 l-5 502 -85 43 c-131 66 -287 108 -462 126 l-58 6 0 -794 0
-795 33 -5 c17 -3 57 -8 87 -11 92 -9 258 -55 352 -96 114 -49 235 -129 332
-220 l76 -71 76 71 c186 174 435 289 681 316 32 3 73 8 91 11 l32 5 0 795 0
794 -57 -6 c-175 -17 -359 -69 -483 -135 l-65 -34 -5 -502 c-5 -487 -6 -503
-25 -517 -27 -21 -58 -20 -86 3 l-24 19 -3 761 -2 761 -30 0 -30 0 0 -755 0
-756 -25 -24 c-13 -14 -34 -25 -45 -25 -11 0 -32 11 -45 25 l-25 24 0 756 0
755 -30 0 -30 0 0 -745z m60 -856 c23 -18 38 -21 79 -17 28 3 60 13 70 22 18
16 21 16 52 -3 19 -12 49 -21 67 -21 17 0 32 -3 32 -7 0 -3 -25 -50 -56 -104
-37 -62 -65 -99 -78 -103 -41 -11 -192 -6 -208 7 -15 12 -118 186 -118 200 0
4 15 7 33 7 17 0 46 9 62 19 17 11 31 20 33 20 2 1 16 -9 32 -20z"/>
<path d="M2585 5175 c-127 -22 -295 -66 -295 -79 0 -6 -1 -359 -3 -783 -1
-425 -2 -773 -2 -773 0 0 52 13 115 29 269 68 568 78 811 28 94 -20 289 -80
394 -122 26 -10 -86 105 -151 156 -75 58 -206 130 -227 125 -9 -2 -15 -1 -12
4 3 4 -14 15 -37 24 -79 32 -204 56 -350 68 l-148 12 0 663 c0 365 -3 663 -7
662 -5 -1 -44 -7 -88 -14z"/>
<path d="M4720 4526 l0 -662 -147 -12 c-86 -6 -189 -22 -245 -36 -182 -46
-366 -154 -503 -295 l-60 -62 50 22 c368 162 819 192 1222 79 40 -11 74 -20
75 -20 2 0 2 353 0 784 l-2 784 -108 26 c-59 14 -146 32 -194 39 l-88 14 0
-661z"/>
<path d="M990 2745 l0 -345 54 0 c53 0 55 1 61 31 6 25 9 28 18 16 71 -90 271
-71 345 32 81 112 61 298 -40 371 -83 60 -209 62 -285 4 l-33 -25 0 130 0 131
-60 0 -60 0 0 -345z m346 16 c17 -10 38 -34 47 -54 59 -123 -60 -246 -186
-194 -96 41 -105 192 -14 247 41 26 112 26 153 1z"/>
<path d="M3620 2960 l0 -129 -36 24 c-68 46 -129 54 -212 30 -105 -31 -162
-116 -162 -240 0 -157 96 -255 248 -255 62 0 98 13 135 48 l27 26 0 -32 0 -32
60 0 60 0 0 345 0 345 -60 0 -60 0 0 -130z m-66 -203 c29 -19 56 -75 56 -117
0 -103 -117 -172 -209 -123 -83 44 -95 171 -22 237 40 36 122 38 175 3z"/>
<path d="M1800 2889 c-14 -6 -35 -20 -47 -31 l-22 -21 -7 27 c-6 24 -10 26
-60 26 l-54 0 0 -245 0 -245 60 0 60 0 0 145 c0 166 9 197 65 221 44 18 79 18
115 -1 l30 -15 25 50 c14 27 25 52 25 55 0 3 -19 15 -42 25 -46 21 -108 25
-148 9z"/>
<path d="M2170 2880 c-196 -67 -215 -375 -30 -470 82 -42 193 -33 250 20 l31
29 6 -30 c5 -28 8 -29 59 -29 l54 0 0 245 0 245 -54 0 c-52 0 -55 -1 -61 -30
l-7 -30 -29 24 c-57 48 -131 57 -219 26z m178 -110 c67 -41 91 -128 54 -199
-26 -51 -63 -75 -119 -75 -95 1 -147 54 -147 151 0 61 22 99 75 125 45 24 96
23 137 -2z"/>
<path d="M4585 2891 c-82 -20 -145 -81 -170 -163 -60 -204 92 -384 285 -338
29 7 63 24 80 40 l31 29 6 -30 c5 -28 8 -29 59 -29 l54 0 0 245 0 245 -54 0
c-52 0 -55 -1 -61 -30 l-7 -30 -29 24 c-48 41 -121 54 -194 37z m153 -121 c67
-41 91 -128 54 -199 -26 -51 -63 -75 -119 -75 -95 1 -147 54 -147 151 0 61 22
99 75 125 45 24 96 23 137 -2z"/>
<path d="M5242 2890 c-18 -4 -43 -17 -56 -29 -29 -27 -36 -27 -36 4 0 25 -2
26 -57 23 l-58 -3 0 -240 0 -240 63 -3 62 -3 0 151 c0 92 4 160 11 173 41 80
148 74 180 -10 5 -13 9 -89 9 -169 l0 -144 59 0 60 0 3 154 c3 138 5 158 24
183 26 35 83 51 119 35 44 -20 55 -65 55 -227 l0 -145 61 0 61 0 -4 178 c-3
167 -4 179 -28 221 -60 107 -247 126 -321 33 -17 -22 -22 -24 -29 -12 -6 8
-10 18 -10 22 0 12 -65 46 -100 51 -19 3 -50 1 -68 -3z"/>
<path d="M6080 2891 c-157 -48 -226 -231 -143 -382 45 -83 118 -121 234 -121
77 -1 150 22 191 59 18 16 17 18 -19 55 -35 36 -38 37 -60 23 -66 -43 -185
-34 -228 17 -48 57 -45 58 165 58 l190 0 0 53 c0 29 -7 74 -16 100 -19 56 -86
121 -140 136 -44 12 -136 13 -174 2z m160 -116 c28 -15 50 -42 50 -64 0 -7
-45 -11 -130 -11 -71 0 -130 2 -130 5 0 15 36 58 59 70 34 19 115 19 151 0z"/>
<path d="M2640 2645 l0 -245 60 0 60 0 0 135 c0 150 9 187 55 223 33 26 104
30 139 7 42 -28 51 -68 51 -222 l0 -143 64 0 63 0 -4 163 c-4 176 -14 215 -66
271 -68 72 -189 76 -280 10 -21 -16 -22 -16 -28 15 -6 30 -8 31 -60 31 l-54 0
0 -245z"/>
<path d="M3840 2645 l0 -245 60 0 60 0 0 135 c0 150 9 187 55 223 19 15 42 22
72 22 38 0 50 -5 79 -34 l34 -34 0 -156 0 -157 61 3 61 3 -1 165 c-2 189 -13
228 -84 284 -36 29 -45 31 -116 31 -68 0 -83 -3 -119 -27 -23 -16 -44 -28 -47
-28 -3 0 -5 14 -5 30 0 30 -1 30 -55 30 l-55 0 0 -245z"/>
<path d="M2700 1920 l0 -220 35 0 35 0 0 220 0 220 -35 0 -35 0 0 -220z"/>
<path d="M3961 2026 c-9 -10 -28 -13 -69 -9 -69 5 -115 -15 -150 -67 -33 -49
-28 -146 8 -186 31 -33 79 -54 125 -54 61 0 93 -50 60 -97 -29 -41 -125 -31
-140 16 -5 16 -15 21 -41 21 -30 0 -34 -3 -34 -26 0 -39 65 -100 116 -108 52
-9 119 8 149 38 49 49 50 147 3 180 l-21 15 26 31 c36 42 42 86 22 138 -16 40
-16 44 -1 61 16 18 16 20 -12 40 -25 17 -32 19 -41 7z m-36 -101 c67 -66 -12
-180 -94 -135 -10 5 -24 23 -31 39 -35 87 61 161 125 96z"/>
<path d="M2181 2004 c-44 -18 -60 -41 -61 -81 0 -54 53 -93 125 -93 18 0 41
-7 49 -16 20 -19 20 -19 0 -38 -21 -21 -60 -20 -111 3 l-42 19 -17 -25 c-16
-25 -16 -27 7 -44 63 -48 183 -45 227 6 23 28 29 74 12 106 -14 26 -62 49
-102 49 -40 0 -79 25 -72 45 9 22 58 28 97 11 32 -13 37 -13 51 3 24 27 19 41
-19 57 -44 18 -100 17 -144 -2z"/>
<path d="M3195 2005 c-129 -47 -136 -227 -11 -292 39 -20 128 -13 164 14 38
27 62 80 62 134 0 109 -110 183 -215 144z m95 -70 c75 -39 46 -165 -37 -165
-78 0 -111 93 -54 151 33 33 50 35 91 14z"/>
<path d="M4425 2008 c-65 -23 -95 -71 -95 -153 0 -67 20 -109 63 -135 44 -27
125 -27 160 0 l26 20 6 -20 c5 -17 14 -20 38 -18 l32 3 3 153 3 152 -36 0
c-21 0 -38 -6 -41 -14 -4 -11 -12 -10 -42 5 -40 21 -72 23 -117 7z m108 -69
c51 -23 63 -104 22 -144 -16 -17 -35 -25 -59 -25 -49 0 -65 8 -82 42 -42 82
36 165 119 127z"/>
<path d="M5132 2009 c-18 -3 -42 -15 -52 -24 -19 -17 -20 -17 -20 3 0 18 -6
22 -35 22 l-35 0 0 -155 0 -155 34 0 34 0 4 100 c2 83 6 103 23 119 34 33 68
36 101 8 28 -24 29 -29 32 -126 l4 -101 34 0 34 0 0 106 c0 144 -20 181 -110
206 -8 3 -30 1 -48 -3z"/>
</g>
</svg>
